<svg xmlns="http://www.w3.org/2000/svg" viewBox="0 0 1038.02 675.44"><defs><style>.cls-1{fill:#1f1f1f;}.cls-2{fill:#f0b829;}.cls-3{fill:#bc8a19;}.cls-4{fill:#eb5457;}.cls-5{fill:#fefefe;}.cls-6{fill:#2c870c;}</style></defs><g id="Layer_2" data-name="Layer 2"><g id="Layer_1-2" data-name="Layer 1"><path class="cls-1" d="M.1,451.45C10,436,16.31,418.26,30.18,405.4a74.35,74.35,0,0,1,23.31-14.86c12.05-4.77,22.73-12.15,34-18.47,15.81-8.9,32-17.05,50-20.29,15.57-2.8,31.32-2.88,47.13-2,7,.38,14,1.58,21.22,1,3.77-.3,8.49-.16,12.14,2.89,3.2,2.67,6.32,2,9.15-1.1a120.81,120.81,0,0,0,8.31-9.85c5.42-7.45,13.15-12.21,21.74-15.08,6.47-2.16,12.29-5.18,16.19-10.59,5.59-7.74,14-8.44,22-9.34,7-.79,14.45-3.29,21.37.93.26.16.75.32.91.19,4.54-3.5,10.78-4.08,15-7.3,12.63-9.55,24.49-20.14,36.94-30.58-4.88-2.84-2.62-7.24-3-11.31-.66-7-3-13.82-4-20.8a68.62,68.62,0,0,1,1.45-27c2.06-8.12,3.61-16.41,7.05-24.06a124.75,124.75,0,0,1,17.69-29.18,75.32,75.32,0,0,0,11.7-19.33c3.51-8.43,9.36-15.91,14.39-23.68A104.07,104.07,0,0,1,455,79c4.5-2.32,10-2.66,13.82-6.33,5.36-5.18,11.8-8.94,16.46-15.23,5.85-7.88,12.17-15.55,19.74-22.15,6.49-5.66,13-11.27,19.54-16.9,7.58-6.55,17.76-7.64,26.53-11.72,16.65-7.75,34.52-7.31,51.8-5.56,15.3,1.56,30.92,4.92,43.86,14.81,5.24,4,8.58,9.56,12.3,14.8a39.19,39.19,0,0,1,4.79,8.08c1.34,3.45,3.08,2.75,5.91,2.07,6-1.44,12.18-1.57,18.44-1.65,7.41-.09,14.89-.93,22.33-.6,9.07.39,18,1.26,26.54,5.22,6.25,2.9,13.11,4.41,19.44,7.37C770.83,57.86,778.63,69,780,84.59c.68,7.92,1.6,15.85.89,23.81-.16,1.74.66,2.22,1.72,3,4.44,3.43,9.39,6.42,13.08,10.54,6.59,7.37,14.64,13.72,17.45,24.05,1.16,4.26,4.81,7.93,1.47,12.75-.21.3,1.6,2.39,2.78,3.21,6.63,4.6,6.29,11.36,5.26,18-.32,2.09-.25,3.09,1.12,4.56,4.86,5.21,4.4,15.29-.21,20.51-5.34,6.05-11.11,11.7-16,18.22a16.62,16.62,0,0,1-12.42,6.23c-4,.22-7.88.84-11.83,1.11a5.92,5.92,0,0,0-4.06,1.68,45.89,45.89,0,0,1-12.7,9.31c-1.58.83-.69,1.65-.21,2.25,1,1.21,1.84,2.4,1.66,4-1.25,11.59,3.71,22,6.28,32.87,1,4,1.37,7.81-.55,11.59-1.36,2.68-1.31,5.23,1.21,7.14,2.71,2.06,3.39,4.73,3.15,7.91-.13,1.66,0,3.33,0,5,0,9.92-4.52,15.19-14.3,18.39-3.78,1.24-7.31,3.51-11.06,5.12-1.89.81-2.78,4-2.84,6.89-.17,8.77-3.36,15.42-11.71,20.17-5.27,3-9.16,8.57-14.82,10.79,1.27,7,7.92,8.46,11.86,12.56,6.43,6.68,14,5,21.4,5.07,10.14.05,18.12,5,25.8,10.72,1.6,1.19,2.73,2.79,5.09,2.37a5.9,5.9,0,0,1,5,1.84,19.13,19.13,0,0,0,9.18,4.66c10.16,2.29,14.22,9.47,16.14,18.48.51,2.36,1.36,2.52,3.36,3.09,9.12,2.63,18.65,2.29,27.8,4.09,11.4,2.24,22.81,4.75,33.89,8.6,12.64,4.39,25.11,9,37.07,15.13a90.19,90.19,0,0,1,19.27,12.92c10.19,9.17,20.73,18.31,26.78,31.13a21.23,21.23,0,0,0,5,6.18,111.24,111.24,0,0,1,19.72,24.79,159.4,159.4,0,0,1,8.67,17.77c3.81,9,10.51,16,15.8,24A52.45,52.45,0,0,1,1024,600c.94,7.48,4.54,14.13,7.13,21.07,3.26,8.73,1.83,18,3.94,26.81a111.94,111.94,0,0,1,3,19.53c.21,3.73-.81,6.29-4.11,7.94q-514.65,0-1029.3.1c-3.74,0-4.6-.85-4.59-4.6Q.2,561.15.1,451.45ZM818.31,646.32c-.11,5-.28,10-.3,14.94,0,10,0,10,9.85,10,8.54,0,8-.14,10.15-8.39,2.88-11.12,1.08-22.43,2.41-33.57.12-2.32.63-4.7.29-6.94-1.71-11.18-1.31-22.48-2.32-33.72-1.9-21-5.21-41.67-8.65-62.37-1.37-8.26-2.12-16.82-5.84-24.52-2.6-5.36-3-11.64-6.54-16.79-1.52,1.26-1.35,2.49-1.36,3.62-.19,17.1-1.41,34.18-1,51.3.5,22.71,4.24,45.25,3.19,68.06C817.56,620.69,818.21,633.52,818.31,646.32Zm-572.07-64a33.65,33.65,0,0,0,1.08,4.29c3.75,9.65,7.42,19.33,11.41,28.88,2.09,5,4.89,9.71,7.11,14.68,1,2.13,2.3,3.32,4.49,3.08,2.45-.28,1.52-2.5,1.85-4,2.31-10.16,1.92-20.63,3.56-30.87a4.25,4.25,0,0,0,.59-4c.38-2.44,1.88-5-1-7-.67-8.86,0-17.76-3.05-26.48-2.76-7.93-2.81-16.58-4.68-24.76-3.17-13.86-6.89-27.6-10.65-41.31-2.28-8.3-5.08-16.46-7.67-24.67-.33-1-.31-2.47-2-2.4-.81,0-1,.71-1.24,1.34-5.25,13.56-7.91,27.75-9,42.12-.82,10.6.22,21.32-.25,32A72.47,72.47,0,0,0,246.24,582.34ZM664,497.66c-4.4.14-8.33,2.12-12.17,3.76-16.55,7.06-28.38,19.9-39.62,33.37-1.07,1.27-.63,2.34-.35,3.66a180.62,180.62,0,0,0,6.21,23.22c.31.88-.09,2.18,1.22,2.38s1.26-1.24,1.85-1.92c5.54-6.32,10.91-12.72,18-17.58,5.53-3.79,11.48-6.89,16.87-10.88a11.28,11.28,0,0,0,5.84-2.57c2.23-1.82,4.86-2,7.56-1.66a2.35,2.35,0,0,1,2.28,2.73c-.16,1.6-1.2,2.19-2.8,2.07-7.23-.53-11.79,4.44-16.91,8.26a10.6,10.6,0,0,0-2.35.66c-10.37,5.55-18.67,13.52-25.66,22.81a15.93,15.93,0,0,0-2.32,14.76c1.25,3.73,1.73,6.77-.12,10.37-.79,1.55-1.63,5.34,1.64,4.85,5.29-.8,11.13.81,15.89-2.9,1.32.08,2.8.6,3.93.18,8.64-3.23,17.55-5.83,25.72-10.24,10.46-5.64,19.19-13.46,27.76-21.6,13.1-12.43,24.27-26.2,31.89-42.68,6.45-14,13.95-27.34,21.65-40.62,3.78-6.52,5.84-13.73,9.22-20.71a4.31,4.31,0,0,0-3.22,1.23c-4.86,3.62-9.41,7.44-15.26,9.83-17.36,7.07-35.78,10.91-53.1,18C679.54,489.74,671.46,493.07,664,497.66ZM538.93,462.38c-.17,1.58.61,2.75,1.4,4.09,6.83,11.57,15.56,21.82,23.14,32.86,2.1,3.06,2.54,7.3,6,9.28,10.94,6.25,21.37,13.26,31.64,20.53,6.06,4.29,7.36,3.78,12.19-2.15,6.59-8.09,13.64-15.75,22.47-21.56,15.65-10.3,34-14.5,50.68-22.53,9.08-4.38,19.29-6,28.83-9.18,16.57-5.51,33-11.77,46.68-23.38,3-2.52,3.3-4.61,2.06-7.65-.49-1.21-1.45-2.26-1.85-3.49-4.79-15-12.85-27.74-25.1-37.79-7.23-5.93-14.45-11.89-21.38-18.17a117.33,117.33,0,0,1-12.64-13.36c-2.7-3.37-5-3.16-8.29-1.31-4.61,2.62-9.37,5-14.83,5.29-1.22-.29-1.87.22-2,1.44l-1.08.21a33.06,33.06,0,0,0-13.24,1.59,88.31,88.31,0,0,1-26.74,4.32c-14.24.2-28.4-2.45-42.7-2A42,42,0,0,1,580,377.35c-9.72-3.09-19.41-6.37-29.12-9.38-16.2-5-31.47-12.08-46.89-18.85-13.11-5.75-24.21-15-36.68-21.95C455.43,320.55,442.83,316,430,311.69c-9.41-4.61-19.81-6.34-29.47-10.5-10.61-4.56-19.33-10.33-25.07-20.48-2.75-4.88-3.89-4.87-8.27-1.24C358.54,286.68,350,294,341.16,301.1c-16.27,13.09-32.68,26-49,39a7.39,7.39,0,0,0-3,5.95c-.48,12.52,3.19,24.22,7,35.86,3.14,9.62,7.85,18.62,11.78,27.92,1.52,3.58,3.28,4.65,7,4.69,10.3.1,20.62-.88,30.9.77a270.69,270.69,0,0,1,27.54,5.87c3.75,1,8,2.28,10.44,5.4,3.24,4.07,7.45,6.6,11.74,9C410,443.63,425,450.62,439.75,458c25.55,12.8,51.18,25.43,77,37.66a123.47,123.47,0,0,0,43.31,11.54,2.92,2.92,0,0,0,2.72-.93c.74-1-.5-2-1-2.44-1.94-1.88-2.92-4.35-4.46-6.47-9.3-12.9-18.68-25.74-27.84-38.74-16.09-22.81-31.39-46.25-50.19-67a215.66,215.66,0,0,1-26-35.66c-4.66-7.92-10.66-15.2-12.62-24.53,2.7-.27,4.09,1.09,5.35,3.45,11.39,21.32,24.33,41.63,40.92,59.33,9.63,10.28,17.9,21.61,25.93,33,7.51,10.66,15,21.35,22.19,32.28C536,461,536.93,462.44,538.93,462.38Zm364.09,60c-2.4-4.77-7.18-7.24-10.64-11-1.57-1.7-3.47-3.14-4.13-5.53a2.28,2.28,0,0,1,.74-2.68c1.18-.82,1.66.26,2.36,1,3.48,3.57,6.88,7.26,10.59,10.58,20,18,37.5,38.26,53.89,59.52,12.11,15.69,22.76,32.41,33.37,49.12,7.34,11.58,14.67,23.19,19.93,36,1.67,4,1.74,10,6.19,11.52,4.16,1.45,9.22.18,13.88.37,2.92.13,3.46-1.09,3.69-3.78.64-7.47-1.5-14.45-3.06-21.58-1.7-7.77-.36-16.05-3.47-23.58-3.7-8.93-7.27-17.86-8.06-27.64a10.24,10.24,0,0,0-1.68-4.11c-9-14.9-17.84-29.85-27-44.61-7.68-12.35-14.39-25.36-25.44-35.4-3.15-2.86-4-7.89-6.76-11.49-13.24-17.18-30-29.89-49.64-38.79a260.63,260.63,0,0,0-50.59-16.48,134,134,0,0,0-35.59-3.4c-4.33.2-6.45,1.83-5.71,6.49a136.09,136.09,0,0,1,2,27.78,5,5,0,0,0,.54,2.36A156.38,156.38,0,0,1,829.84,508c3,11.31,4.79,23,7.1,34.49-.65,5.2.62,10.29,1.44,15.31a330.29,330.29,0,0,1,4.6,46.75c0,2.32.06,4.65.19,7,1,18.06,2.53,36.18-1.61,54.05-1.08,4.68-.08,5.72,4.53,5.71,43.47-.13,86.94-.07,130.41-.12,1.14,0,2.61.75,3.68-1.07-1.88-1.62-3.85-3.14-5.61-4.87-8.06-7.92-17-14.79-25.54-22.2-1.13-1-3.14-2.28-1-4,1.65-1.31,3.54-.89,4.72,1,1,1.6,2.56,2.51,3.92,3.72,7.78,6.91,16.7,12.52,23.28,20.83,2.2,2.77,4.66,6.16,8.44,6.48,6,.51,12,.13,18,.13,2,0,2.81-.73,1.9-2.76-2.39-5.35-4.32-10.85-7.14-16.07-10.52-19.49-23-37.7-35-56.26C959.55,585.93,952,576.47,944.49,567c-11.82-14.82-24.09-29.16-37.81-42.23C905.61,523.74,904.75,522.39,903,522.42ZM511,542.34c5.83-.3,11.48,1.44,16.94,2.76,11.81,2.85,23.93,3.31,35.82,4.7,12.37,1.45,23.41,5.46,34.53,10.16,4.28,1.8,8.54,3.65,12.82,5.46,1.06.45,2.21,1.07,3.15-.18.73-1,0-1.88-.35-2.78-1.87-4.81-2.9-9.84-4.24-14.79-1-3.59-.89-8.4-4.61-10.49a114.2,114.2,0,0,1-15.7-11.13c-14.31-11.52-30.21-17.82-48.63-17.5a18.34,18.34,0,0,1-6.28-1.4c-8.3-2.79-16-7.07-24.49-9.41-7.84-4.18-15.64-8.45-23.54-12.52-12.67-6.52-26-11.73-38.52-18.55-12.05-6.54-24.28-12.82-36.72-18.61-8.7-4-17.64-7.82-25.1-13.74a63,63,0,0,0-19.54-10.24c-8.59-2.86-17.4-5.74-26.52-6.27-9.71-.55-19.48-.12-29.74-.12,4.93,8.78,7.26,17.92,12.05,26s8.12,16.64,13.57,24.27c5.76,8.07,11.63,16,17.87,23.71,10.66,13.12,20.61,26.82,32.27,39.1,9.92,10.46,21.27,19.41,31.76,29.28a75.41,75.41,0,0,0,14.88,10.5c7.9,4.45,16.68,6.47,25.11,9.4,18.07,6.31,36.58,10.57,55.91,10.35,9.66-.11,19.37-.47,29,.39,10.41.93,20.74,2.42,31.22,1.41,4.1.74,8.26.17,12.42.71,9,1.18,18.12,1.79,27.2,2.53,1.39.11,3.69.58,3.95-1.12.52-3.41,1-7.14,0-10.31-.41-1.37-4.42-2.39-6.75-2.31-7.68.3-15.23-1-22.85-1.3-9.57-.35-19.09-1.83-28.65-2.54-7.42-.55-14.86-.67-22.3-1-6.81-.17-13.52-1.64-20.37-1.37-2.47.09-6.43.67-6-3.13.36-3.29,4.23-1.77,6.28-1.51,17.67,2.22,35.41,2.68,53.18,2.79.22,1.52,1.31,1.75,2.57,1.73,7.47-.09,14.84,1.35,22.35,1.22,5.92-.1,11.87.74,17.8,1.29,1.72.16,4.12,1.59,4.68-.71a4.9,4.9,0,0,0-3.14-5.56c-11.14-4.55-22.31-9-33.41-13.64-12.5-5.22-25.82-5-38.94-6.15-9-1.45-17.72-4.14-26.86-4.62-1.58-2.85-4-1.31-6.21-1.25-1-.48-2.79-.41-2.46-1.91C507,541.34,509.44,542.92,511,542.34Zm-273-98.83c-2.87-9.79-5.68-19.6-8.68-29.35-.56-1.79-2.75-3-2.23-5.28,1.82-8.1-.41-16.19-.1-24.31.3-7.78.07-15.59.07-23.31-1.89,0-4.12.69-5.38-.12-6.48-4.16-13.67-4.68-21-5.17-5.94-.39-11.92-.9-17.78-1.73-16.59-2.37-33-.52-48.93,3.12-15.38,3.5-29.77,10.42-43.48,18.35-14.08,8.15-28,16.45-43,23a42.72,42.72,0,0,0-15.5,11.47,166.05,166.05,0,0,0-19.26,28.37c-5.75,10.67-9,21.3-8.74,33.83.78,42.94.38,85.9.43,128.85,0,22.14,0,44.29-.19,66.44,0,3.5,1.72,3.6,4.34,3.6q131.43-.06,262.88.05c4.11,0,5-1.93,5.56-5.21,1.17-6.42-2.07-11.31-5.14-16.35C265.25,639,259,628.12,254.18,616.5c-4.25-10.21-7.77-20.7-12.27-30.84-4.34-9.79-8.67-20.07-8.63-30.92.07-19.9-2.08-39.91,1.89-59.68,1.36-6.77,1.81-13.88,5-20.1C245.75,463.9,245.35,453.54,237.94,443.51ZM469.07,80.88a7.92,7.92,0,0,0-1.8-.44,5.31,5.31,0,0,0-1.93.42c-11.58,5.34-23.21,10.6-31.47,20.94a32.1,32.1,0,0,1-5.4,5.86c-9.78,7.31-15,18-20.62,28.19C402.8,145,398.8,154.77,392,162.76c-7.85,9.23-14.75,19-17.8,30.77-3.18,12.3-7.5,24.4-7.15,37.46.22,8.58,2.53,16.73,4.27,24.95,2.17,10.24,4.23,20.66,11.36,29.14,8,9.53,19.62,12.82,30.4,16.88,10.46,3.94,21.47,6.56,32.05,10.42,12.47,4.56,24.58,9.79,35.28,17.69,18.22,13.46,39,21.61,59.87,29.71,9.71,3.77,19.63,7,29.47,10.4a120.15,120.15,0,0,0,27.17,5.6c11.44,1.2,23-.47,34.32,1.61,2.39.44,4.73,1.33,7.37.74,6.62-1.48,13.33-2.7,20-3.95,6.49-1.21,12.85-3.2,19.48-3.85a38.07,38.07,0,0,0,19.31-7.41c.83-.62,2.26-1.29,2-2.63s-1.75-1.32-2.83-1.6c-3-.8-6.08-2.08-9.17-2.22-21.43-1-39.71-10.33-57.41-21.29-5.19-3.21-10.17-6.89-15.67-9.42a180.69,180.69,0,0,0-26.23-10.1c-7.65-2.14-14.81-5.77-22.72-7.11a94.38,94.38,0,0,1-29-10.17c-8.72-4.69-17.27-9.71-25.89-14.59-7.31-4.14-12.57-10.14-16.58-17.49-4.38-8-2.63-16.57-2.71-24.94a8.79,8.79,0,0,1,6.38-8.26c10.37-2.52,21.21-4.11,31,1.66,8.2,4.84,15.77,10.78,23.57,16.29,5.68,4,11.23,8.18,17.85,10.67s13.55,4.11,20,7.23c15.63,7.58,30.65,16.45,47.36,21.77,10.79,3.43,21.29,7.75,33,6.87a15.16,15.16,0,0,1,4.88.86c10.2,2.76,20,7.18,30.71,7.89a58.68,58.68,0,0,1,7.82,1.27c7.94,1.61,15.72,3.92,24,4.08,7.76.16,15.17-1.76,22.76-2.49,7.15-.69,9.26-2.11,8.46-11.53-.16-1.8-.44-3.89.28-5.41,2.19-4.66,1.07-9.12-.18-13.6-2.18-7.81-4.73-15.52-6.72-23.38-1.49-5.88-5.41-10.19-8.52-15.05-1.1-1.71-2.67-1.6-4.39-1.57-8.66.17-17.18-.3-25.72-2.48-5.62-1.43-11.18-3.5-17.35-3.72,7.49,7.47,13.5,16.33,22.89,21.7,1.28.73,3.06,1.39,1.92,3.31-.86,1.45-2.31.87-3.57.28a6.68,6.68,0,0,1-1.35-.63c-9.81-7.86-19.22-16.12-26.41-26.57-.88-1.28-1.66-2.54-3.27-2.82-4.33-.74-7.28-3.78-10.61-6.22-1.15-.84-2.38-1.9-1.37-3.22,1.14-1.5,2.84-.73,3.92.35a22.9,22.9,0,0,0,8.85,5.44c18.79,6.42,37.38,13.76,58.06,10.57,8.11-1.25,15.66-2.59,20.9-9.67,2.2-3,5.25-3.88,8.88-2.83a21.74,21.74,0,0,0,9.91.32c3.74-.67,8.22-.26,10.53-4.51.61-1.12,2-2.2,1.11-3.54s-2.41-.58-3.61,0a20,20,0,0,1-11.64,2.07c-14.8-2.37-29.73-3.44-44.2-8.4-15-5.14-31.05-6.63-46.25-11.43a38.53,38.53,0,0,1-7.82-4c-4.64-2.67-8.22-6.45-11.52-12.09-.93,4.43.11,7.54-1.79,10.24C676,196.3,658.46,203,652.11,201c-7.67-2.51-15.51-3.18-23.5-3.52a106.45,106.45,0,0,1-39.94-9.12c-15.86-7.19-30.38-16.76-45-26-2.19-1.38-3.88-3.61-5.66-5.58a2.76,2.76,0,0,1,.06-4.06c1.7-1.48,2.77.24,3.54,1.4,1.3,2,2.64,4,4.69,5.09,11.18,6.11,21.29,13.95,32.62,19.85,13.06,6.8,26.5,11.91,41.21,13.84,9.53,1.24,19.23.41,28.66,3.09a27.2,27.2,0,0,0,20.37-2.28c3.39-1.78,7.17-3.6,8.58-7.67.51-1.48,1.14-3.48-2-2.88-11,2.09-22,3.8-33.41,1.78-6.65-1.18-13.24-2.8-19.93-3.87-3.8-.61-7.89-.81-11.59-2.37-10.26-4.33-20.48-8.79-31.52-10.87a16.66,16.66,0,0,1-5-1.89,65.07,65.07,0,0,1-22.6-20.3c-2.09-3-4.56-5.93-8.68-5.94a28.49,28.49,0,0,1-17.07-5.48c-4-2.93-9.56-4.58-10.65-10.47-.42-2.23-1.14-5.28,2-5.72,3.71-.52,7.84-1.34,11.29.58,5.39,3,11,2.32,16.57,1.75,14.45-1.46,28.92-.59,43.39-.53a18.79,18.79,0,0,1,5.31,1.28c10.28,3.27,20.72,5.76,31.58,5.56a48.72,48.72,0,0,1,18.5,3.36c12.36,4.8,25.54,7.33,37.3,13.74,2.64,1.44,7.22-1.8,6.16-4.38s-1.35-6-4.2-7.69a159.12,159.12,0,0,0-30.5-14.16c-6.3-2.09-12.68-4-18.73-6.72-2.82-1.25-5.45-2.32-8.5-2.26-15.7.28-31.39-2.55-47.13,0-6.22,1-12.57,0-18.91.76a168.8,168.8,0,0,1-28.35,1.33c-1.36-.06-2.85,0-2.8-2s1.6-1.82,2.92-1.81c20,.22,39.8-2.15,59.67-2.74,17-.5,34.54-1.85,51,5.44,8.14,3.61,17.19,4.91,25.05,9.48,3.92,2.28,8.22,3.92,12.37,5.86.64-1.73-.62-2.36-1.14-3.33-4.71-8.81-12.16-15.66-17.26-24.19-6.47-10.82-13.64-21-23.62-29-4.17-3.35-9.44-3.73-14-6.22-5.88-3.24-12.43-5.9-19.24-6.13-22.24-.75-44.62-2.18-65.56,8-1.41.68-3.4,1.83-4.25-.34s1.31-2.89,2.83-3.39c6.73-2.26,13.41-4.83,20.31-6.43,11-2.55,22.2-1,33.33-1.08,12.12-.11,24.4-1,35.37,5.92a21.81,21.81,0,0,0,5.33,2.67c8.84,2.61,15,8.71,20.4,15.68,3.88,5,7.57,10.09,11.35,15.14-.6-10-.1-19.65-.11-29.27a55,55,0,0,0-7.33-27.41c-7.1-12.87-17.62-20.77-31-24.8C606.19,5,587,5.76,567.91,7.16c-9.54.71-17.3,6.59-26.42,8.55-6.28,1.35-11.65,4.91-16.59,8.89a226.88,226.88,0,0,0-37.58,38.21c-9,11.66-17.16,23.45-22.32,37.31a29.58,29.58,0,0,1-6.17,10.15c-1,1-1.73,2.85-3.55,1.65s-1.13-3.15,0-4.34C462.32,100,464.07,89.69,469.07,80.88Zm25,169c-.24,14,7.41,23.37,18.77,30.85,7.36,4.86,15.64,7.84,23.06,12.64,6.85,4.42,14.4,8.56,22.64,9.82,14.59,2.23,27.92,8.39,41.87,12.56,18.76,5.61,33.91,18.4,51.16,27.09,6.42,3.23,12.71,6.87,19.87,7.4a121.31,121.31,0,0,1,31.73,6.92c11.06,3.95,20.59-1.45,30.82-1.13.54,0,1.13-.63,1.65-1,4.09-3.17,5.55-7.55,6.11-12.51.49-4.42-.85-6.65-5.63-5.94-5.82.87-11-1-16.17-3.52-3.55-1.72-7.3-3.47-11.14-4.09-12.16-2-23.07-8-35.19-10.26-9.39-1.76-18.37-5.65-27.73-7.75-10.51-2.36-21.13-4.28-31.41-7.47-8.51-2.64-17.75-3.22-25.45-8.19-12.12-7.81-25.56-12.81-39.06-17.2A99.06,99.06,0,0,1,514,257a5.88,5.88,0,0,1-2-4.43,2.38,2.38,0,0,1,1.28-2.5c1.17-.5,1.78.34,2.45,1.14,8.13,9.69,17.89,17.16,30.13,20.75,11.17,3.28,21.67,8.24,32.39,12.57C589.28,289,599,295.83,611,298.4c12.91,2.74,25.76,6.21,38.54,9.78,14.48,4.05,29.42,6.5,43.5,11.9,11.88,4.55,24.46,6.74,36.2,12,6,2.64,13.05,2.39,19.73-.93a72.24,72.24,0,0,1,13.67-5.64c4.22-1.1,7.05-3.5,9.66-6.49a4.18,4.18,0,0,0,.79-5.06,4.1,4.1,0,0,0-4.51-2.34,93.44,93.44,0,0,0-12.32,1.57c-10.72,2.59-21.49,2.06-32.2.64-8.14-1.08-15.91-4.3-24.23-4.71-4.17-.21-8.07-1.63-12-2.87-6.9-2.15-14.05-5.33-21-5.13-15.1.45-28.45-5.51-41.68-10.51-19.55-7.39-37.26-19.14-57.37-25.74-11.22-3.68-20.36-11.71-29.72-18.76s-18.23-13.37-30.64-11.45c-4.79.75-9.53,1-12.22,6.18C493.65,243.74,494.64,246.67,494.07,249.85ZM666.73,70.26c.55,4.52-.18,8.8.74,13.15.72,3.38,2.46,3.69,4.92,2.8,6.68-2.39,13.4-1.6,20.16-.64,13.11,1.87,26.46,2.62,38.59,8.85,1.57.81,3.55.8,5.34,1.16a82.32,82.32,0,0,1,14.25,3.88c6.47,2.56,13.13,4.62,19.66,7,4.38,1.62,5.37,0,5.43-4.29a118.55,118.55,0,0,0-1.23-15.35c-1.16-10-3.7-19.57-12.39-26.21-11.06-8.44-24.34-12.4-37.22-15.44-18.61-4.4-37.64-2.07-56,4-2.67.89-3.44,1.87-3.21,4.43C666.25,59.26,667.65,64.81,666.73,70.26Zm16.73,18.12c-3,.14-6,.11-8.94,1-2.28.72-5.73,0-6.33,2.83-.78,3.61-1.35,7.65,1.82,10.82,4.11,4.11,6.33,9.54,9.82,14.09,1.8,2.35,4.24,4.8,4.68,7.49.83,5.09,3.65,5.12,7.46,4.47a101.79,101.79,0,0,1,27.81-1.16c15.28,1.63,30.57,3,45.65,6.48,12.43,2.84,24.2,6.69,34.66,14.15,1.92,1.37,4.35,4.67,6.07,3.11,2-1.82,1.16-5.62-.1-8.41a23.32,23.32,0,0,0-3.44-6c-6.51-7.29-12.89-14.73-21.35-20-3.65-2.26-6.73-6.36-10.6-7.19-11.09-2.38-21.2-7.65-32.21-10.09-4.05-.9-8.47-1.11-12.05-2.93C712.81,90.11,697.86,90.76,683.46,88.38Zm14.34,78.86c-1.83,0-3.67-.09-5.49,0-5.06.29-5.17,5.15-7.44,8.06-1.79,2.28.21,3.38,1.13,4.68a35.93,35.93,0,0,0,18.5,13.49,199.69,199.69,0,0,0,32.84,8c8.29,1.23,15.57,5.4,23.79,6.79,5.9,1,12.22.75,17.64,2.74,12,4.39,22.74.81,33.61-3.33,4.06-1.55,7.75-5.06,8.15-8.64.28-2.62-3.54-5.94-7.43-7.47-8.4-3.3-16.48-7.36-24.8-10.86-6.39-2.68-13.29-3.86-19.71-6.65-2.55-1.1-7.11-2.83-8.83.22-3.16,5.57-8.23,8.64-13.15,11.6-8.67,5.2-17.9,6.88-27.91,2.4-7.94-3.56-10.11-10.5-12.17-17.58-.86-2.92-2-3.81-4.73-3.53C700.48,167.35,699.14,167.23,697.8,167.24ZM522.27,120.7c-1.37.14-2.72-.18-3.14,1.34a3.07,3.07,0,0,0,1.49,3.45A157.26,157.26,0,0,0,535,134.17c1.91,1,4.64,1.62,7-.38,3.57-3,7.94-3.78,12.52-4.09,13.09-.89,25.69,1.76,38.21,5.08,11.5,3.05,23.37,4.44,34.8,7.9,7.88,2.39,15.11,6.5,23.14,8.44,9.68,2.34,19.42,4.44,28.79,7.91,2.35.87,5.53-.37,7.14,1.66,3.5,4.43,8.15,3.67,12.72,3.65,27.4-.15,54.63.28,81,9.76,12.57,4.53,25.08,8.88,36.4,16.12.78.5,1.84,2.06,2.92.54.63-.89-.09-2-.84-2.64-2.94-2.68-5.44-5.77-8.8-8.08-10.22-7-22.52-8.26-33.78-12.34-7.88-2.86-16.42-3.89-24.4-6.53-9.16-3-18.29-5.67-27.93-6.83s-19.28-.44-28.9-1c-3.1-.18-6.88.66-9.15-1.48-2.88-2.72-6.26-4.32-9.57-6.07-10-5.3-21.29-7.22-31.7-11.48a57.28,57.28,0,0,0-22.89-3.91,32.24,32.24,0,0,1-6.44-.41c-8.55-1.64-16.91-4.29-25.37-6-13.54-2.73-27.49-1.89-41.23-.5-8.11.82-16.15,2.58-23.69-2.25A7.65,7.65,0,0,0,522.27,120.7ZM816.58,175c.52-5-.84-8.05-4.16-10.49-2.25-1.66-4-4-6.06-5.92-10-9-21.34-16.07-34.57-18.62-10.84-2.08-21.43-5.26-32.54-6.39-15.08-1.52-30-3.21-45.16-1.09-3.37.47-4.15,1.51-3.4,4.76a9,9,0,0,1-1.76,8c-1.68,2.09-1.28,4.45,1.52,3.85,4.47-1,8.59.87,12.84.53,21.49-1.75,41.48,5.12,61.69,10.64,9.91,2.7,19.87,5.3,29.56,8.66,5.88,2,12,3.75,17.34,7.24,1.26.84,2.14,3.11,4,2C817.38,177.33,816.51,175.41,816.58,175ZM560.89,133.21c-3.15.15-6.32.13-9.44.54-1.14.15-2.87.3-3.33,1.7-.59,1.8,1.34,1.94,2.27,2.74a22.19,22.19,0,0,1,3.44,3.54c5.63,7.56,11.82,14.48,20,19.54,4.88,3,10.39,3.22,15.47,5.16,8.92,3.41,17.69,7.53,26.92,9.71,10.77,2.54,21.77,5.14,32.73,6,13.38,1.05,27.67,1.5,35.31-13.73,1.72-3.43,1.29-5-2.54-5.68-2.44-.44-5.12-.22-7.35-1.13-10.93-4.48-22.87-5.39-33.78-9.85-1.09-.45-1.47-.75-2.45.7-6.43,9.57-25,16-35.91,12.47-7.13-2.33-13.2-5.91-15-14.27-.73-3.37-2.27-6.6-2.25-10.13,0-2.82-1.3-4.27-3.92-4.8C574.43,134.37,567.77,132.88,560.89,133.21Z"/><path class="cls-2" d="M469.07,80.88c-5,8.81-6.75,19.07-13.81,26.7-1.11,1.19-1.92,3.06,0,4.34s2.55-.6,3.55-1.65A29.58,29.58,0,0,0,465,100.12c5.16-13.86,13.32-25.65,22.32-37.31A226.88,226.88,0,0,1,524.9,24.6c4.94-4,10.31-7.54,16.59-8.89,9.12-2,16.88-7.84,26.42-8.55C587,5.76,606.19,5,624.75,10.61c13.39,4,23.91,11.93,31,24.8a55,55,0,0,1,7.33,27.41c0,9.62-.49,19.25.11,29.27-3.78-5-7.47-10.17-11.35-15.14-5.43-7-11.56-13.07-20.4-15.68a21.81,21.81,0,0,1-5.33-2.67c-11-6.89-23.25-6-35.37-5.92-11.13.1-22.36-1.47-33.33,1.08-6.9,1.6-13.58,4.17-20.31,6.43-1.52.5-3.63,1.33-2.83,3.39s2.84,1,4.25.34c20.94-10.15,43.32-8.72,65.56-8,6.81.23,13.36,2.89,19.24,6.13,4.52,2.49,9.79,2.87,14,6.22,10,8,17.15,18.18,23.62,29,5.1,8.53,12.55,15.38,17.26,24.19.52,1,1.78,1.6,1.14,3.33-4.15-1.94-8.45-3.58-12.37-5.86-7.86-4.57-16.91-5.87-25.05-9.48-16.5-7.29-34-5.94-51-5.44-19.87.59-39.72,3-59.67,2.74-1.32,0-2.86-.14-2.92,1.81s1.44,1.9,2.8,2a168.8,168.8,0,0,0,28.35-1.33c6.34-.78,12.69.24,18.91-.76,15.74-2.51,31.43.32,47.13,0,3-.06,5.68,1,8.5,2.26,6,2.68,12.43,4.63,18.73,6.72a159.12,159.12,0,0,1,30.5,14.16c2.85,1.67,3.11,5.06,4.2,7.69s-3.52,5.82-6.16,4.38c-11.76-6.41-24.94-8.94-37.3-13.74a48.72,48.72,0,0,0-18.5-3.36c-10.86.2-21.3-2.29-31.58-5.56a18.79,18.79,0,0,0-5.31-1.28c-14.47-.06-28.94-.93-43.39.53-5.59.57-11.18,1.25-16.57-1.75-3.45-1.92-7.58-1.1-11.29-.58-3.19.44-2.47,3.49-2,5.72,1.09,5.89,6.7,7.54,10.65,10.47A28.49,28.49,0,0,0,543,139.64c4.12,0,6.59,2.93,8.68,5.94a65.07,65.07,0,0,0,22.6,20.3,16.66,16.66,0,0,0,5,1.89c11,2.08,21.26,6.54,31.52,10.87,3.7,1.56,7.79,1.76,11.59,2.37,6.69,1.07,13.28,2.69,19.93,3.87,11.42,2,22.37.31,33.41-1.78,3.16-.6,2.53,1.4,2,2.88-1.41,4.07-5.19,5.89-8.58,7.67a27.2,27.2,0,0,1-20.37,2.28c-9.43-2.68-19.13-1.85-28.66-3.09-14.71-1.93-28.15-7-41.21-13.84-11.33-5.9-21.44-13.74-32.62-19.85-2-1.12-3.39-3.12-4.69-5.09-.77-1.16-1.84-2.88-3.54-1.4a2.76,2.76,0,0,0-.06,4.06c1.78,2,3.47,4.2,5.66,5.58,14.67,9.26,29.19,18.83,45,26a106.45,106.45,0,0,0,39.94,9.12c8,.34,15.83,1,23.5,3.52,6.35,2.08,23.88-4.66,27.71-10.12,1.9-2.7.86-5.81,1.79-10.24,3.3,5.64,6.88,9.42,11.52,12.09a38.53,38.53,0,0,0,7.82,4c15.2,4.8,31.27,6.29,46.25,11.43,14.47,5,29.4,6,44.2,8.4A20,20,0,0,0,803,214.41c1.2-.57,2.65-1.35,3.61,0s-.5,2.42-1.11,3.54c-2.31,4.25-6.79,3.84-10.53,4.51a21.74,21.74,0,0,1-9.91-.32c-3.63-1.05-6.68-.14-8.88,2.83-5.24,7.08-12.79,8.42-20.9,9.67-20.68,3.19-39.27-4.15-58.06-10.57a22.9,22.9,0,0,1-8.85-5.44c-1.08-1.08-2.78-1.85-3.92-.35-1,1.32.22,2.38,1.37,3.22,3.33,2.44,6.28,5.48,10.61,6.22,1.61.28,2.39,1.54,3.27,2.82,7.19,10.45,16.6,18.71,26.41,26.57a6.68,6.68,0,0,0,1.35.63c1.26.59,2.71,1.17,3.57-.28,1.14-1.92-.64-2.58-1.92-3.31-9.39-5.37-15.4-14.23-22.89-21.7,6.17.22,11.73,2.29,17.35,3.72,8.54,2.18,17.06,2.65,25.72,2.48,1.72,0,3.29-.14,4.39,1.57,3.11,4.86,7,9.17,8.52,15.05,2,7.86,4.54,15.57,6.72,23.38,1.25,4.48,2.37,8.94.18,13.6-.72,1.52-.44,3.61-.28,5.41.8,9.42-1.31,10.84-8.46,11.53-7.59.73-15,2.65-22.76,2.49-8.27-.16-16-2.47-24-4.08a58.68,58.68,0,0,0-7.82-1.27c-10.75-.71-20.51-5.13-30.71-7.89a15.16,15.16,0,0,0-4.88-.86c-11.67.88-22.17-3.44-33-6.87-16.71-5.32-31.73-14.19-47.36-21.77-6.43-3.12-13.36-4.73-20-7.23s-12.17-6.65-17.85-10.67c-7.8-5.51-15.37-11.45-23.57-16.29-9.79-5.77-20.63-4.18-31-1.66a8.79,8.79,0,0,0-6.38,8.26c.08,8.37-1.67,16.93,2.71,24.94,4,7.35,9.27,13.35,16.58,17.49,8.62,4.88,17.17,9.9,25.89,14.59a94.38,94.38,0,0,0,29,10.17c7.91,1.34,15.07,5,22.72,7.11a180.69,180.69,0,0,1,26.23,10.1c5.5,2.53,10.48,6.21,15.67,9.42,17.7,11,36,20.27,57.41,21.29,3.09.14,6.12,1.42,9.17,2.22,1.08.28,2.56.28,2.83,1.6s-1.15,2-2,2.63a38.07,38.07,0,0,1-19.31,7.41c-6.63.65-13,2.64-19.48,3.85-6.65,1.25-13.36,2.47-20,3.95-2.64.59-5-.3-7.37-.74-11.36-2.08-22.88-.41-34.32-1.61a120.15,120.15,0,0,1-27.17-5.6c-9.84-3.42-19.76-6.63-29.47-10.4-20.83-8.1-41.65-16.25-59.87-29.71-10.7-7.9-22.81-13.13-35.28-17.69-10.58-3.86-21.59-6.48-32.05-10.42-10.78-4.06-22.38-7.35-30.4-16.88-7.13-8.48-9.19-18.9-11.36-29.14-1.74-8.22-4.05-16.37-4.27-24.95-.35-13.06,4-25.16,7.15-37.46,3.05-11.82,10-21.54,17.8-30.77,6.79-8,10.79-17.79,15.84-26.91,5.65-10.21,10.84-20.88,20.62-28.19a32.1,32.1,0,0,0,5.4-5.86c8.26-10.34,19.89-15.6,31.47-20.94a5.31,5.31,0,0,1,1.93-.42A7.92,7.92,0,0,1,469.07,80.88ZM602.65,212.46a65.87,65.87,0,0,0,26.49-3.56c1.57-.53,3.56-1.05,2.57-3.33-.81-1.87-2.68-1.12-3.94-.6-8.49,3.55-17.43,4-26.39,3.69-11.2-.42-22.49,2.56-33.61-1-1.2-.38-3.35-.71-3.46,1.59-.09,1.89,1.15,3,3.12,3.15,4.29.33,8.58.73,12.88,1C587.79,213.79,595.16,211.51,602.65,212.46ZM465.94,224.61c0-.51,0,0,0,.49.12,1.24-.38,3.09,1.45,3.18s1.47-1.8,1.6-3a14.2,14.2,0,0,1,5.11-9.39c6.36-5.57,14.08-7.62,22.32-8.19,1.34-.09,3.48.46,3.24-1.86-.18-1.85-2.07-1.09-3.28-1.22-6.5-.73-12.72,1.13-18.27,3.81C472,211.34,465.5,215,465.94,224.61Z"/><path class="cls-3" d="M237.94,443.51c7.41,10,7.81,20.39,2.19,31.45-3.15,6.22-3.6,13.33-5,20.1-4,19.77-1.82,39.78-1.89,59.68,0,10.85,4.29,21.13,8.63,30.92,4.5,10.14,8,20.63,12.27,30.84,4.84,11.62,11.07,22.53,17.6,33.26,3.07,5,6.31,9.93,5.14,16.35-.59,3.28-1.45,5.21-5.56,5.21q-131.45-.18-262.88-.05c-2.62,0-4.37-.1-4.34-3.6.17-22.15.15-44.3.19-66.44,7.18,1,12.48-1.09,15.77-8.19a164.4,164.4,0,0,1,12.17-22c1.53-2.29,4.74-3.39,4.79-6.71l0,.05c3.09.67,5.24-1,6.74-3.25a219.69,219.69,0,0,1,15.44-20.94c5.21-6.21,10.21-12.71,16.11-18.21,4.8-4.47,10.89-7.52,14.35-13.51a6.86,6.86,0,0,1,3.6-2.52,17.25,17.25,0,0,0,7.16-4.3,10.29,10.29,0,0,1,7.22-3c4.33,0,6.95-2.7,10-5,1.06-.79,1.85-1.59.81-2.81-3.16-3.7.26-4.4,2.49-4.72,5-.73,9.78-2.61,15-2.89a72.47,72.47,0,0,0,18.53-3.06c10.46-3.36,20.81-7.13,31.39-10,10.4-2.87,19.5-7.86,28.23-14C221.44,450.9,229,445.86,237.94,443.51Z"/><path class="cls-2" d="M237.94,443.51c-8.92,2.35-16.5,7.39-23.86,12.59-8.73,6.16-17.83,11.15-28.23,14-10.58,2.91-20.93,6.68-31.39,10a72.47,72.47,0,0,1-18.53,3.06c-5.23.28-10,2.16-15,2.89-2.23.32-5.65,1-2.49,4.72,1,1.22.25,2-.81,2.81-3,2.26-5.64,4.94-10,5a10.29,10.29,0,0,0-7.22,3,17.25,17.25,0,0,1-7.16,4.3,6.86,6.86,0,0,0-3.6,2.52c-3.46,6-9.55,9-14.35,13.51-5.9,5.5-10.9,12-16.11,18.21a219.69,219.69,0,0,0-15.44,20.94c-1.5,2.28-3.65,3.92-6.74,3.25,3.76-3.86,5.7-8.93,8.79-13.22a302.23,302.23,0,0,1,33-38.31c9.21-9.1,20.16-14.94,31.93-19.69,1.51-.61,4.3-.86,3.13-3.44s-3.4-1.23-5.18-.44c-4.68,2.08-9.44,4-13.94,6.43-12.75,6.86-22.69,17-32.29,27.64-9.81,10.87-18.08,22.8-26,35-1.41,2.19-3,4.27.55,5.94-.05,3.32-3.26,4.42-4.79,6.71A164.4,164.4,0,0,0,20.1,593c-3.29,7.1-8.59,9.18-15.77,8.19,0-43,.35-85.91-.43-128.85-.23-12.53,3-23.16,8.74-33.83A166.05,166.05,0,0,1,31.9,410.18a42.72,42.72,0,0,1,15.5-11.47c15-6.55,28.93-14.85,43-23,13.71-7.93,28.1-14.85,43.48-18.35,16-3.64,32.34-5.49,48.93-3.12,5.86.83,11.84,1.34,17.78,1.73,7.35.49,14.54,1,21,5.17,1.26.81,3.49.12,5.38.12,0,7.72.23,15.53-.07,23.31-.31,8.12,1.92,16.21.1,24.31-.52,2.3,1.67,3.49,2.23,5.28C232.26,423.91,235.07,433.72,237.94,443.51Zm-24.57-48v-.18c-6.63.48-13.39.27-19.85,1.58a334.15,334.15,0,0,0-37.31,9.95c-24.85,8.11-47.37,20.24-67.23,37.32-14.81,12.74-28.86,26.18-41.49,41.18a270.82,270.82,0,0,0-31,46.05,26.87,26.87,0,0,0-3.21,10.42c-.13,1.53,0,3.24,2,3.4s1.81-1.48,1.81-2.81c0-2.74,1.17-5.15,2.24-7.58C23,526.44,28,518.78,33,511.24c16.38-24.61,36.71-45.77,59.29-64.64A189.9,189.9,0,0,1,133.5,420c18.76-8.8,38.35-14.55,58.51-18.73a127.87,127.87,0,0,1,27.66-2.81c1.19,0,3,.42,3-1.64-.08-1.61-1.65-1.34-2.76-1.37C217.7,395.43,215.53,395.47,213.37,395.47Z"/><path class="cls-2" d="M440.73,331.49c2,9.33,8,16.61,12.63,24.53a215.66,215.66,0,0,0,26,35.66c18.8,20.72,34.1,44.16,50.19,67,9.16,13,18.54,25.84,27.84,38.74,1.54,2.12,2.52,4.59,4.46,6.47.47.45,1.71,1.41,1,2.44a2.92,2.92,0,0,1-2.72.93,123.47,123.47,0,0,1-43.31-11.54c-25.83-12.23-51.46-24.86-77-37.66-14.79-7.41-29.8-14.4-44.26-22.46-4.29-2.4-8.5-4.93-11.74-9-2.47-3.12-6.69-4.39-10.44-5.4a270.69,270.69,0,0,0-27.54-5.87c-10.28-1.65-20.6-.67-30.9-.77-3.68,0-5.44-1.11-7-4.69-3.93-9.3-8.64-18.3-11.78-27.92-3.79-11.64-7.46-23.34-7-35.86a7.39,7.39,0,0,1,3-5.95c16.35-13,32.76-25.92,49-39,8.8-7.07,17.38-14.42,26.06-21.63,4.38-3.63,5.52-3.64,8.27,1.24,5.74,10.15,14.46,15.92,25.07,20.48,9.66,4.16,20.06,5.89,29.47,10.5C432.14,319.08,433,327.13,440.73,331.49ZM384,401.08a2.82,2.82,0,0,0-1.55-2.62,77.32,77.32,0,0,1-12.22-10A189.06,189.06,0,0,1,339,350.05c-3.15-5.21-6.63-10.26-8.86-16-.56-1.47-2.05-3.07-3.94-2-1.55.92-1.1,2.54-.19,3.93,5.7,8.66,10.46,17.89,16.31,26.48,8.57,12.57,18.9,23.47,30.06,33.63a33.65,33.65,0,0,0,8.93,6.23C382.94,403.07,383.8,403.37,384,401.08Zm-56.92-39.3c-1.33,0-2.13.27-2.38,1.16-.47,1.62.39,2.91,1.37,4.05a123.88,123.88,0,0,0,23.65,21c7.16,5,14.09,10.35,21.12,15.55,1.47,1.08,3.42,1.6,4.51.24,1.34-1.69-.86-2.59-1.89-3.4-3.89-3.07-7.9-6-11.9-8.93-11.56-8.5-23.87-16.13-32.51-28A8.39,8.39,0,0,0,327.08,361.78Z"/><path class="cls-2" d="M570,573.53c-17.77-.11-35.51-.57-53.18-2.79-2.05-.26-5.92-1.78-6.28,1.51-.43,3.8,3.53,3.22,6,3.13,6.85-.27,13.56,1.2,20.37,1.36,6.13,4.63,13.91,4.77,20.7,7.65,5.53,2.34,12,2.72,16.25,7.68-10.48,1-20.81-.48-31.22-1.41-9.59-.86-19.3-.5-29-.39-19.33.22-37.84-4-55.91-10.35-8.43-2.93-17.21-4.95-25.11-9.4A75.41,75.41,0,0,1,417.78,560c-10.49-9.87-21.84-18.82-31.76-29.28-11.66-12.28-21.61-26-32.27-39.1-6.24-7.68-12.11-15.64-17.87-23.71-5.45-7.63-8.83-16.31-13.57-24.27s-7.12-17.19-12.05-26c10.26,0,20-.43,29.74.12,9.12.53,17.93,3.41,26.52,6.27a63,63,0,0,1,19.54,10.24c7.46,5.92,16.4,9.7,25.1,13.74,12.44,5.79,24.67,12.07,36.72,18.61,12.55,6.82,25.85,12,38.52,18.55,7.9,4.07,15.7,8.34,23.54,12.52-.15,2.76.88,4.49,3.6,5.77a81.9,81.9,0,0,1,33.07,28c1,1.49,1.68,2.85,1.2,4.57-.42,1.48-1.77,1.15-2.89,1.35a131.48,131.48,0,0,1-29.58,2c-2.16-.09-4,.27-4.36,2.93-1.54.58-4-1-4.6,1.59-.33,1.5,1.49,1.43,2.46,1.9,1.61,2.68,4.07,1.17,6.21,1.26,9.14.48,17.89,3.17,26.86,4.62.39.49.72,1.36,1.17,1.43,7.4,1.14,13.28,5.6,19.4,9.26C566.36,564.71,571.36,567.25,570,573.53Z"/><path class="cls-2" d="M836.94,542.49c-2.31-11.51-4.06-23.18-7.1-34.49a156.38,156.38,0,0,0-11.42-30.93,5,5,0,0,1-.54-2.36,136.09,136.09,0,0,0-2-27.78c-.74-4.66,1.38-6.29,5.71-6.49a134,134,0,0,1,35.59,3.4,260.63,260.63,0,0,1,50.59,16.48c19.64,8.9,36.4,21.61,49.64,38.79,2.78,3.6,3.61,8.63,6.76,11.49,11.05,10,17.76,23,25.44,35.4,9.18,14.76,18.06,29.71,27,44.61a10.24,10.24,0,0,1,1.68,4.11c.79,9.78,4.36,18.71,8.06,27.64,3.11,7.53,1.77,15.81,3.47,23.58,1.56,7.13,3.7,14.11,3.06,21.58-.23,2.69-.77,3.91-3.69,3.78-4.66-.19-9.72,1.08-13.88-.37-4.45-1.55-4.52-7.49-6.19-11.52-5.26-12.8-12.59-24.41-19.93-36-10.61-16.71-21.26-33.43-33.37-49.12C939.44,553,922,532.74,901.94,514.78c-3.71-3.32-7.11-7-10.59-10.58-.7-.71-1.18-1.79-2.36-1a2.28,2.28,0,0,0-.74,2.68c.66,2.39,2.56,3.83,4.13,5.53,3.46,3.74,8.24,6.21,10.64,11-.61,8.67,3.74,16.4,4.42,25,1.19,15.23,5.68,30.17,1.61,45.68-1.42,5.42-2.91,10.58-8.29,12.59-5.58,2.07-11,.52-15.62-3.56-8.37-7.3-16.49-14.75-23-23.9-3.56-5-7.58-9.82-9.43-15.69a25.25,25.25,0,0,0-4.67-9c-2.6-3.09-6.39-5.18-7.64-9.47C840.1,543,838.35,542.5,836.94,542.49Z"/><path class="cls-2" d="M676.86,375.51l1.08-.21a1.56,1.56,0,0,0,2-1.44c5.46-.32,10.22-2.67,14.83-5.29,3.25-1.85,5.59-2.06,8.29,1.31a117.33,117.33,0,0,0,12.64,13.36c6.93,6.28,14.15,12.24,21.38,18.17,12.25,10,20.31,22.81,25.1,37.79.4,1.23,1.36,2.28,1.85,3.49,1.24,3,.9,5.13-2.06,7.65-13.7,11.61-30.11,17.87-46.68,23.38-9.54,3.18-19.75,4.8-28.83,9.18-16.67,8-35,12.23-50.68,22.53C627,511.24,619.91,518.9,613.32,527c-4.83,5.93-6.13,6.44-12.19,2.15-10.27-7.27-20.7-14.28-31.64-20.53-3.48-2-3.92-6.22-6-9.28-7.58-11-16.31-21.29-23.14-32.86-.79-1.34-1.57-2.51-1.4-4.09.38-5,.13-10-1.87-14.64-3.72-8.56-2.37-11.4,6.32-13.95,12.74-3.73,25.28-8.14,38.07-11.7,3.33-.93,8-2.78,10.63,1.64,6.62,11,4.82,21.65-1.88,31.94-.55.84-1.35,1.55-.65,2.63a1.76,1.76,0,0,0,2.15.77c6.86-2.28,14.18-3.62,18.4-10.66,2.49-4.16,5.06-8.36,9.38-11.82,1.39,6.87-1,13.73,2.35,19.83a18.3,18.3,0,0,1,0,3q-2.93,19.33-5.94,38.66c-.27,1.75-1.41,3.94,1.51,4.19,2.27.19,2.25-1.91,2.46-3.58.93-7.37,1.42-14.8,3.09-22.08,2.5-10.94,2.2-22.4,6.15-33.08,1.73-.21,2.54-1.19,2.85-2.91,1.72-9.61,7.86-17,12.67-25.08,6.06-10.16,15.27-17.73,22.59-26.85C670.64,384.43,675.43,381.18,676.86,375.51Z"/><path class="cls-3" d="M836.94,542.49c1.41,0,3.16.47,3.47,1.57,1.25,4.29,5,6.38,7.64,9.47a25.25,25.25,0,0,1,4.67,9c1.85,5.87,5.87,10.66,9.43,15.69,6.5,9.15,14.62,16.6,23,23.9,4.67,4.08,10,5.63,15.62,3.56,5.38-2,6.87-7.17,8.29-12.59,4.07-15.51-.42-30.45-1.61-45.68-.68-8.62-5-16.35-4.42-25,1.73,0,2.59,1.32,3.66,2.34,13.72,13.07,26,27.41,37.81,42.23,7.55,9.48,15.06,18.94,21.63,29.12,12,18.56,24.48,36.77,35,56.26,2.82,5.22,4.75,10.72,7.14,16.07.91,2,.1,2.76-1.9,2.76-6,0-12,.38-18-.13-3.78-.32-6.24-3.71-8.44-6.48-6.58-8.31-15.5-13.92-23.28-20.83-1.36-1.21-2.91-2.12-3.92-3.72-1.18-1.87-3.07-2.29-4.72-1-2.13,1.69-.12,3,1,4,8.51,7.41,17.48,14.28,25.54,22.2,1.76,1.73,3.73,3.25,5.61,4.87-1.07,1.82-2.54,1.07-3.68,1.07-43.47.05-86.94,0-130.41.12-4.61,0-5.61-1-4.53-5.71,4.14-17.87,2.56-36,1.61-54.05-.13-2.33-.15-4.66-.19-7a330.29,330.29,0,0,0-4.6-46.75C837.56,552.78,836.29,547.69,836.94,542.49Z"/><path class="cls-3" d="M676.86,375.51c-1.43,5.67-6.22,8.92-9.61,13.14-7.32,9.12-16.53,16.69-22.59,26.85-4.81,8.06-10.95,15.47-12.67,25.08-.31,1.72-1.12,2.7-2.85,2.91-.82-11.54,3.32-22.58,3.38-34,0-1.48.43-3,.35-4.43-.09-1.81-1.41-2.51-3.09-2.56-1.15,0-2.57-.38-3.28.67-1.1,1.61.69,2.19,1.45,3.16,1.52,1.93.8,4.05.44,6.19-1.81,10.76-3.87,21.47-4.61,32.41-.26,3.82,0,7.91-1.95,11.52-3.31-6.1-1-13-2.35-19.83-4.32,3.46-6.89,7.66-9.38,11.82-4.22,7-11.54,8.38-18.4,10.66a1.76,1.76,0,0,1-2.15-.77c-.7-1.08.1-1.79.65-2.63,6.7-10.29,8.5-20.95,1.88-31.94-2.66-4.42-7.3-2.57-10.63-1.64-12.79,3.56-25.33,8-38.07,11.7-8.69,2.55-10,5.39-6.32,13.95,2,4.6,2.25,9.63,1.87,14.64-2,.06-2.9-1.42-3.8-2.81C528,448.64,520.45,438,512.94,427.29c-8-11.41-16.3-22.74-25.93-33-16.59-17.7-29.53-38-40.92-59.33-1.26-2.36-2.65-3.72-5.35-3.45-7.73-4.36-8.6-12.41-10.71-19.8,12.8,4.26,25.4,8.86,37.29,15.48,12.47,6.94,23.57,16.2,36.68,21.95,15.42,6.77,30.69,13.83,46.89,18.85,9.71,3,19.4,6.29,29.12,9.38a42,42,0,0,0,14.17,2.11c14.3-.49,28.46,2.16,42.7,2a88.31,88.31,0,0,0,26.74-4.32A33.06,33.06,0,0,1,676.86,375.51Z"/><path class="cls-4" d="M494.07,249.85c.57-3.18-.42-6.11,1.12-9,2.69-5.14,7.43-5.43,12.22-6.18,12.41-1.92,21.42,4.51,30.64,11.45s18.5,15.08,29.72,18.76c20.11,6.6,37.82,18.35,57.37,25.74,13.23,5,26.58,11,41.68,10.51,7-.2,14.11,3,21,5.13,4,1.24,7.87,2.66,12,2.87,8.32.41,16.09,3.63,24.23,4.71,10.71,1.42,21.48,1.95,32.2-.64a93.44,93.44,0,0,1,12.32-1.57,4.1,4.1,0,0,1,4.51,2.34,4.18,4.18,0,0,1-.79,5.06c-2.61,3-5.44,5.39-9.66,6.49A72.24,72.24,0,0,0,749,331.11c-6.68,3.32-13.78,3.57-19.73.93-11.74-5.22-24.32-7.41-36.2-12-14.08-5.4-29-7.85-43.5-11.9-12.78-3.57-25.63-7-38.54-9.78-12.08-2.57-21.76-9.45-32.71-13.87-10.72-4.33-21.22-9.29-32.39-12.57-12.24-3.59-22-11.06-30.13-20.75-.67-.8-1.28-1.64-2.45-1.14a2.38,2.38,0,0,0-1.28,2.5,5.88,5.88,0,0,0,2,4.43A99.06,99.06,0,0,0,550,278c13.5,4.39,26.94,9.39,39.06,17.2,7.7,5,16.94,5.55,25.45,8.19,10.28,3.19,20.9,5.11,31.41,7.47,9.36,2.1,18.34,6,27.73,7.75,12.12,2.28,23,8.28,35.19,10.26,3.84.62,7.59,2.37,11.14,4.09,5.16,2.5,10.35,4.39,16.17,3.52,4.78-.71,6.12,1.52,5.63,5.94-.56,5-2,9.34-6.11,12.51-.52.41-1.11,1.06-1.65,1-10.23-.32-19.76,5.08-30.82,1.13a121.31,121.31,0,0,0-31.73-6.92c-7.16-.53-13.45-4.17-19.87-7.4-17.25-8.69-32.4-21.48-51.16-27.09-13.95-4.17-27.28-10.33-41.87-12.56-8.24-1.26-15.79-5.4-22.64-9.82-7.42-4.8-15.7-7.78-23.06-12.64C501.48,273.22,493.83,263.9,494.07,249.85Z"/><path class="cls-2" d="M652,542.5c5.12-3.82,9.68-8.79,16.91-8.26,1.6.12,2.64-.47,2.8-2.07a2.35,2.35,0,0,0-2.28-2.73c-2.7-.34-5.33-.16-7.56,1.66a11.28,11.28,0,0,1-5.84,2.57c-1.86-.36-2.61-1.62-3.23-3.34-2.16-6,.13-10.87,2.84-16,2.9-5.49,7.59-10.11,8.4-16.65,7.47-4.59,15.55-7.92,23.63-11.22,17.32-7.09,35.74-10.93,53.1-18,5.85-2.39,10.4-6.21,15.26-9.83a4.31,4.31,0,0,1,3.22-1.23c-3.38,7-5.44,14.19-9.22,20.71-7.7,13.28-15.2,26.67-21.65,40.62-7.62,16.48-18.79,30.25-31.89,42.68-8.57,8.14-17.3,16-27.76,21.6-8.17,4.41-17.08,7-25.72,10.24-1.13.42-2.61-.1-3.93-.17-.54-2.24,1.89-3.48,1.9-5.52,0-5.88,3.05-10.39,7.19-14a7.62,7.62,0,0,0,2.89-6.92c1.21-.8,2.08-2.12,3.72-2.24s2.56-.92,2.07-2.57c-.55-1.87-2-1-3.24-.88-3.85.38-6.62,3.68-10.55,3.78-2.69-.9-2.27-2.35-.76-4.08A44.55,44.55,0,0,0,652,542.5Z"/><path class="cls-2" d="M666.73,70.26c.92-5.45-.48-11-1-16.6-.23-2.56.54-3.54,3.21-4.43,18.37-6.09,37.4-8.42,56-4,12.88,3,26.16,7,37.22,15.44,8.69,6.64,11.23,16.17,12.39,26.21a118.55,118.55,0,0,1,1.23,15.35c-.06,4.31-1.05,5.91-5.43,4.29-6.53-2.42-13.19-4.48-19.66-7a82.32,82.32,0,0,0-14.25-3.88c-1.79-.36-3.77-.35-5.34-1.16-12.13-6.23-25.48-7-38.59-8.85-6.76-1-13.48-1.75-20.16.64-2.46.89-4.2.58-4.92-2.8C666.55,79.06,667.28,74.78,666.73,70.26Z"/><path class="cls-2" d="M683.46,88.38c14.4,2.38,29.35,1.73,42.95,8.65,3.58,1.82,8,2,12.05,2.93,11,2.44,21.12,7.71,32.21,10.09,3.87.83,7,4.93,10.6,7.19,8.46,5.26,14.84,12.7,21.35,20a23.32,23.32,0,0,1,3.44,6c1.26,2.79,2.11,6.59.1,8.41-1.72,1.56-4.15-1.74-6.07-3.11-10.46-7.46-22.23-11.31-34.66-14.15-15.08-3.45-30.37-4.85-45.65-6.48A101.79,101.79,0,0,0,692,129.1c-3.81.65-6.63.62-7.46-4.47-.44-2.69-2.88-5.14-4.68-7.49-3.49-4.55-5.71-10-9.82-14.09-3.17-3.17-2.6-7.21-1.82-10.82.6-2.82,4-2.11,6.33-2.83C677.46,88.49,680.42,88.52,683.46,88.38Z"/><path class="cls-2" d="M276.33,594.42a4.25,4.25,0,0,1-.59,4c-8-1.45-14.42-6.14-20.85-10.72-2.77-2-4.87-5-8.65-5.36a72.47,72.47,0,0,1-9.43-39.14c.47-10.64-.57-21.36.25-32,1.11-14.37,3.77-28.56,9-42.12.24-.63.43-1.3,1.24-1.34,1.68-.07,1.66,1.37,2,2.4,2.59,8.21,5.39,16.37,7.67,24.67,3.76,13.71,7.48,27.45,10.65,41.31,1.87,8.18,1.92,16.83,4.68,24.76,3,8.72,2.38,17.62,3.05,26.48C275.41,589.77,274.08,592.34,276.33,594.42Z"/><path class="cls-5" d="M697.8,167.24c1.34,0,2.68.11,4,0,2.73-.28,3.87.61,4.73,3.53,2.06,7.08,4.23,14,12.17,17.58,10,4.48,19.24,2.8,27.91-2.4,4.92-3,10-6,13.15-11.6,1.72-3,6.28-1.32,8.83-.22,6.42,2.79,13.32,4,19.71,6.65,8.32,3.5,16.4,7.56,24.8,10.86,3.89,1.53,7.71,4.85,7.43,7.47-.4,3.58-4.09,7.09-8.15,8.64-10.87,4.14-21.58,7.72-33.61,3.33-5.42-2-11.74-1.74-17.64-2.74-8.22-1.39-15.5-5.56-23.79-6.79a199.69,199.69,0,0,1-32.84-8A35.93,35.93,0,0,1,686,180c-.92-1.3-2.92-2.4-1.13-4.68,2.27-2.91,2.38-7.77,7.44-8.06C694.13,167.15,696,167.24,697.8,167.24Z"/><path class="cls-2" d="M522.27,120.7a7.65,7.65,0,0,1,2.67.56c7.54,4.83,15.58,3.07,23.69,2.25,13.74-1.39,27.69-2.23,41.23.5,8.46,1.7,16.82,4.35,25.37,6a32.24,32.24,0,0,0,6.44.41,57.28,57.28,0,0,1,22.89,3.91c10.41,4.26,21.68,6.18,31.7,11.48,3.31,1.75,6.69,3.35,9.57,6.07,2.27,2.14,6,1.3,9.15,1.48,9.62.55,19.26-.17,28.9,1s18.77,3.81,27.93,6.83c8,2.64,16.52,3.67,24.4,6.53C787.47,171.78,799.77,173,810,180c3.36,2.31,5.86,5.4,8.8,8.08.75.68,1.47,1.75.84,2.64-1.08,1.52-2.14,0-2.92-.54-11.32-7.24-23.83-11.59-36.4-16.12-26.33-9.48-53.56-9.91-81-9.76-4.57,0-9.22.78-12.72-3.65-1.61-2-4.79-.79-7.14-1.66-9.37-3.47-19.11-5.57-28.79-7.91-8-1.94-15.26-6.05-23.14-8.44-11.43-3.46-23.3-4.85-34.8-7.9-12.52-3.32-25.12-6-38.21-5.08-4.58.31-8.95,1.11-12.52,4.09-2.39,2-5.12,1.33-7,.38a157.26,157.26,0,0,1-14.38-8.68,3.07,3.07,0,0,1-1.49-3.45C519.55,120.52,520.9,120.84,522.27,120.7Z"/><path class="cls-3" d="M511,542.34c.32-2.66,2.2-3,4.36-2.93a131.48,131.48,0,0,0,29.58-2c1.12-.2,2.47.13,2.89-1.35.48-1.72-.17-3.08-1.2-4.57a81.9,81.9,0,0,0-33.07-28c-2.72-1.28-3.75-3-3.6-5.77,8.47,2.34,16.19,6.62,24.49,9.41a18.34,18.34,0,0,0,6.28,1.4c18.42-.32,34.32,6,48.63,17.5A114.2,114.2,0,0,0,605,537.18c3.72,2.09,3.64,6.9,4.61,10.49,1.34,5,2.37,10,4.24,14.79.35.9,1.08,1.79.35,2.78-.94,1.25-2.09.63-3.15.18-4.28-1.81-8.54-3.66-12.82-5.46-11.12-4.7-22.16-8.71-34.53-10.16-11.89-1.39-24-1.85-35.82-4.7C522.46,543.78,516.81,542,511,542.34Z"/><path class="cls-2" d="M818.31,646.32c-.1-12.8-.75-25.63-.16-38.4,1.05-22.81-2.69-45.35-3.19-68.06-.37-17.12.85-34.2,1-51.3,0-1.13-.16-2.36,1.36-3.62,3.52,5.15,3.94,11.43,6.54,16.79,3.72,7.7,4.47,16.26,5.84,24.52,3.44,20.7,6.75,41.41,8.65,62.37,1,11.24.61,22.54,2.32,33.72.34,2.24-.17,4.62-.29,6.93-2.53,1.49-3.24,4.46-5.18,6.42C830.42,640.54,825.22,644.79,818.31,646.32Z"/><path class="cls-2" d="M816.58,175c-.07.41.8,2.33-.65,3.18-1.91,1.12-2.79-1.15-4-2-5.33-3.49-11.46-5.2-17.34-7.24-9.69-3.36-19.65-6-29.56-8.66-20.21-5.52-40.2-12.39-61.69-10.64-4.25.34-8.37-1.49-12.84-.53-2.8.6-3.2-1.76-1.52-3.85a9,9,0,0,0,1.76-8c-.75-3.25,0-4.29,3.4-4.76,15.14-2.12,30.08-.43,45.16,1.09,11.11,1.13,21.7,4.31,32.54,6.39,13.23,2.55,24.56,9.6,34.57,18.62,2.1,1.9,3.81,4.26,6.06,5.92C815.74,167,817.1,170,816.58,175Z"/><path class="cls-5" d="M560.89,133.21c6.88-.33,13.54,1.16,20.21,2.5,2.62.53,3.94,2,3.92,4.8,0,3.53,1.52,6.76,2.25,10.13,1.8,8.36,7.87,11.94,15,14.27,10.9,3.57,29.48-2.9,35.91-12.47,1-1.45,1.36-1.15,2.45-.7,10.91,4.46,22.85,5.37,33.78,9.85,2.23.91,4.91.69,7.35,1.13,3.83.68,4.26,2.25,2.54,5.68-7.64,15.23-21.93,14.78-35.31,13.73-11-.85-22-3.45-32.73-6-9.23-2.18-18-6.3-26.92-9.71-5.08-1.94-10.59-2.16-15.47-5.16-8.22-5.06-14.41-12-20-19.54a22.19,22.19,0,0,0-3.44-3.54c-.93-.8-2.86-.94-2.27-2.74.46-1.4,2.19-1.55,3.33-1.7C554.57,133.34,557.74,133.36,560.89,133.21Z"/><path class="cls-3" d="M664,497.66c-.81,6.54-5.5,11.16-8.4,16.65-2.71,5.15-5,10.07-2.84,16,.62,1.72,1.37,3,3.23,3.34-5.39,4-11.34,7.09-16.87,10.88-7.07,4.86-12.44,11.26-18,17.58-.59.68-.51,2.12-1.85,1.92s-.91-1.5-1.22-2.38a180.62,180.62,0,0,1-6.21-23.22c-.28-1.32-.72-2.39.35-3.66,11.24-13.47,23.07-26.31,39.62-33.37C655.66,499.78,659.59,497.8,664,497.66Z"/><path class="cls-3" d="M651,566.64a7.62,7.62,0,0,1-2.89,6.92c-4.14,3.59-7.16,8.1-7.19,14,0,2-2.44,3.28-1.9,5.52-4.76,3.7-10.6,2.09-15.89,2.89-3.27.49-2.43-3.3-1.64-4.85,1.85-3.6,1.37-6.64.12-10.37A15.93,15.93,0,0,1,623.94,566c7-9.29,15.29-17.26,25.66-22.81a10.6,10.6,0,0,1,2.35-.66,44.55,44.55,0,0,1-9.7,18.15c-1.51,1.73-1.93,3.18.76,4.08-4.69,2.92-9.34,5.92-14.1,8.74-1.74,1-2.58,2.44-1.6,4.06s2.62.94,4,.07,2.69-2,4.13-2.78C640.49,571.89,645.29,568.39,651,566.64Z"/><path class="cls-3" d="M570,573.53c1.36-6.28-3.64-8.82-7.52-11.13-6.12-3.66-12-8.12-19.4-9.26-.45-.07-.78-.94-1.17-1.43,13.12,1.16,26.44.93,38.94,6.15,11.1,4.65,22.27,9.09,33.41,13.64a4.9,4.9,0,0,1,3.14,5.56c-.56,2.3-3,.87-4.68.71-5.93-.55-11.88-1.39-17.8-1.29-7.51.13-14.88-1.31-22.35-1.22C571.31,575.28,570.22,575.05,570,573.53Z"/><path class="cls-3" d="M573.86,592.07c-4.29-5-10.72-5.34-16.25-7.68-6.79-2.88-14.57-3-20.7-7.65,7.44.32,14.88.44,22.3,1,9.56.71,19.08,2.19,28.65,2.54,7.62.28,15.17,1.6,22.85,1.3,2.33-.08,6.34.94,6.75,2.31.95,3.17.49,6.9,0,10.31-.26,1.7-2.56,1.23-3.95,1.12-9.08-.74-18.18-1.35-27.2-2.53C582.12,592.24,578,592.81,573.86,592.07Z"/><path class="cls-3" d="M246.24,582.34c3.78.33,5.88,3.38,8.65,5.36,6.43,4.58,12.81,9.27,20.85,10.72-1.64,10.24-1.25,20.71-3.56,30.87-.33,1.48.6,3.7-1.85,4-2.19.24-3.53-.95-4.49-3.08-2.22-5-5-9.67-7.11-14.68-4-9.55-7.66-19.23-11.41-28.88A33.65,33.65,0,0,1,246.24,582.34Z"/><path class="cls-3" d="M818.31,646.32c6.91-1.53,12.11-5.78,16.93-10.63,1.94-2,2.65-4.93,5.18-6.42-1.33,11.15.47,22.46-2.41,33.58-2.13,8.25-1.61,8.38-10.15,8.39-9.85,0-9.89,0-9.85-10C818,656.28,818.2,651.3,818.31,646.32Z"/><path class="cls-6" d="M276.33,594.42c-2.25-2.08-.92-4.65-1-7C278.21,589.39,276.71,592,276.33,594.42Z"/><path class="cls-6" d="M515.05,547.09c-2.14-.09-4.6,1.42-6.21-1.26C511,545.78,513.47,544.24,515.05,547.09Z"/><path class="cls-6" d="M680,373.86a1.56,1.56,0,0,1-2,1.44C678.08,374.08,678.73,373.57,680,373.86Z"/><path class="cls-1" d="M602.65,212.46c-7.49-1-14.86,1.33-22.34.93-4.3-.24-8.59-.64-12.88-1-2-.14-3.21-1.26-3.12-3.15.11-2.3,2.26-2,3.46-1.59,11.12,3.54,22.41.56,33.61,1,9,.34,17.9-.14,26.39-3.69,1.26-.52,3.13-1.27,3.94.6,1,2.28-1,2.8-2.57,3.33A65.87,65.87,0,0,1,602.65,212.46Z"/><path class="cls-1" d="M465.94,224.61c-.44-9.63,6.05-13.27,12.17-16.21,5.55-2.68,11.77-4.54,18.27-3.81,1.21.13,3.1-.63,3.28,1.22.24,2.32-1.9,1.77-3.24,1.86-8.24.57-16,2.62-22.32,8.19a14.2,14.2,0,0,0-5.11,9.39c-.13,1.23.34,3.12-1.6,3s-1.33-1.94-1.45-3.18C465.9,224.6,465.94,224.1,465.94,224.61Z"/><path class="cls-1" d="M213.37,395.47c2.16,0,4.33,0,6.49,0,1.11,0,2.68-.24,2.76,1.37.09,2.06-1.76,1.65-3,1.64A127.87,127.87,0,0,0,192,401.31c-20.16,4.18-39.75,9.93-58.51,18.73A189.9,189.9,0,0,0,92.32,446.6c-22.58,18.87-42.91,40-59.29,64.64-5,7.54-10,15.2-13.67,23.56-1.07,2.43-2.22,4.84-2.24,7.58,0,1.33.18,3-1.81,2.81s-2.16-1.87-2-3.4a26.87,26.87,0,0,1,3.21-10.42,270.82,270.82,0,0,1,31-46.05c12.63-15,26.68-28.44,41.49-41.18,19.86-17.08,42.38-29.21,67.23-37.32a334.15,334.15,0,0,1,37.31-9.95c6.46-1.31,13.22-1.1,19.85-1.58Z"/><path class="cls-1" d="M37.06,564.29c-3.53-1.67-2-3.75-.55-5.94,7.89-12.24,16.16-24.17,26-35,9.6-10.64,19.54-20.78,32.29-27.64,4.5-2.43,9.26-4.35,13.94-6.43,1.78-.79,4.07-2,5.18.44s-1.62,2.83-3.13,3.44C99,497.87,88,503.71,78.83,512.81a302.23,302.23,0,0,0-33,38.31c-3.09,4.29-5,9.36-8.79,13.22Z"/><path class="cls-1" d="M384,401.08c-.2,2.29-1.06,2-2.65,1.28a33.65,33.65,0,0,1-8.93-6.23c-11.16-10.16-21.49-21.06-30.06-33.63-5.85-8.59-10.61-17.82-16.31-26.48-.91-1.39-1.36-3,.19-3.93,1.89-1.12,3.38.48,3.94,2,2.23,5.75,5.71,10.8,8.86,16a189.06,189.06,0,0,0,31.19,38.4,77.32,77.32,0,0,0,12.22,10A2.82,2.82,0,0,1,384,401.08Z"/><path class="cls-1" d="M327.08,361.78a8.39,8.39,0,0,1,2,1.6c8.64,11.9,20.95,19.53,32.51,28,4,2.94,8,5.86,11.9,8.93,1,.81,3.23,1.71,1.89,3.4-1.09,1.36-3,.84-4.51-.24-7-5.2-14-10.54-21.12-15.55a123.88,123.88,0,0,1-23.65-21c-1-1.14-1.84-2.43-1.37-4.05C325,362.05,325.75,361.73,327.08,361.78Z"/><path class="cls-1" d="M621.83,456.42c1.95-3.61,1.69-7.7,1.95-11.52.74-10.94,2.8-21.65,4.61-32.41.36-2.14,1.08-4.26-.44-6.19-.76-1-2.55-1.55-1.45-3.16.71-1.05,2.13-.7,3.28-.67,1.68,0,3,.75,3.09,2.56.08,1.47-.34,3-.35,4.43-.06,11.45-4.2,22.49-3.38,34-3.95,10.68-3.65,22.14-6.15,33.08-1.67,7.28-2.16,14.71-3.09,22.08-.21,1.67-.19,3.77-2.46,3.58-2.92-.25-1.78-2.44-1.51-4.19q3-19.32,5.94-38.66A18.3,18.3,0,0,0,621.83,456.42Z"/><path class="cls-1" d="M651,566.64c-5.72,1.75-10.52,5.25-15.62,8.18-1.44.82-2.74,1.87-4.13,2.78s-3,1.51-4-.07-.14-3,1.6-4.06c4.76-2.82,9.41-5.82,14.1-8.74,3.93-.1,6.7-3.4,10.55-3.78,1.27-.13,2.69-1,3.24.88.49,1.65-.51,2.45-2.07,2.57S652.22,565.84,651,566.64Z"/></g></g></svg>